<?xml version="1.0" encoding="UTF-8"?>
<svg xmlns="http://www.w3.org/2000/svg" xmlns:xlink="http://www.w3.org/1999/xlink" width="78px" height="78px" viewBox="0 0 78 78" version="1.1">
<g id="surface1">
<path style=" stroke:none;fill-rule:nonzero;fill:rgb(45.882353%,98.431373%,29.803923%);fill-opacity:1;" d="M 39.003906 0 C 17.453125 -0.0078125 0 17.910156 0 40.03125 C 0 57.519531 10.917969 72.386719 26.125 77.847656 C 28.171875 78.375 27.859375 76.882812 27.859375 75.859375 L 27.859375 68.921875 C 16.035156 70.347656 15.554688 62.308594 14.761719 60.964844 C 13.160156 58.15625 9.367188 57.4375 10.5 56.097656 C 13.191406 54.671875 15.9375 56.453125 19.117188 61.28125 C 21.417969 64.777344 25.90625 64.1875 28.179688 63.605469 C 28.679688 61.503906 29.742188 59.625 31.207031 58.164062 C 18.953125 55.910156 13.847656 48.230469 13.847656 39.097656 C 13.847656 34.667969 15.265625 30.59375 18.054688 27.308594 C 16.277344 21.894531 18.222656 17.257812 18.484375 16.570312 C 23.546875 16.101562 28.808594 20.292969 29.21875 20.625 C 32.09375 19.828125 35.378906 19.40625 39.058594 19.40625 C 42.75 19.40625 46.046875 19.84375 48.945312 20.648438 C 49.933594 19.878906 54.8125 16.28125 59.515625 16.71875 C 59.769531 17.410156 61.667969 21.9375 59.996094 27.28125 C 62.820312 30.578125 64.257812 34.6875 64.257812 39.125 C 64.257812 48.273438 59.117188 55.960938 46.828125 58.183594 C 47.882812 59.246094 48.71875 60.511719 49.289062 61.910156 C 49.859375 63.308594 50.152344 64.8125 50.148438 66.328125 L 50.148438 76.398438 C 50.21875 77.203125 50.148438 78 51.457031 78 C 66.890625 72.65625 78 57.679688 78 40.039062 C 78 17.910156 60.535156 0 39.003906 0 Z M 39.003906 0 "/>
</g>
</svg>
