<?xml version="1.0" encoding="UTF-8"?>
<svg xmlns="http://www.w3.org/2000/svg" xmlns:xlink="http://www.w3.org/1999/xlink" width="78px" height="78px" viewBox="0 0 78 78" version="1.1">
<g id="surface1">
<path style="fill-rule:nonzero;fill:rgb(45.882353%,98.431373%,29.803923%);fill-opacity:1;stroke-width:0.5;stroke-linecap:round;stroke-linejoin:round;stroke:rgb(45.882353%,98.431373%,29.803923%);stroke-opacity:1;stroke-miterlimit:4;" d="M 20 10 C 21.989183 10 23.897236 10.790264 25.303486 12.196514 C 26.709736 13.602764 27.5 15.510817 27.5 17.5 L 27.5 26.25 L 22.5 26.25 L 22.5 17.5 C 22.5 16.83744 22.237079 16.200421 21.768329 15.731671 C 21.299579 15.262921 20.66256 15 20 15 C 19.33744 15 18.700421 15.262921 18.231671 15.731671 C 17.762921 16.200421 17.5 16.83744 17.5 17.5 L 17.5 26.25 L 12.5 26.25 L 12.5 17.5 C 12.5 15.510817 13.290264 13.602764 14.696514 12.196514 C 16.102764 10.790264 18.010817 10 20 10 Z M 20 10 " transform="matrix(2.6,0,0,2.6,0,0)"/>
<path style="fill-rule:nonzero;fill:rgb(45.882353%,98.431373%,29.803923%);fill-opacity:1;stroke-width:0.5;stroke-linecap:round;stroke-linejoin:round;stroke:rgb(45.882353%,98.431373%,29.803923%);stroke-opacity:1;stroke-miterlimit:4;" d="M 7.5 11.25 L 2.5 11.25 L 2.5 26.25 L 7.5 26.25 Z M 7.5 11.25 " transform="matrix(2.6,0,0,2.6,0,0)"/>
<path style="fill-rule:nonzero;fill:rgb(45.882353%,98.431373%,29.803923%);fill-opacity:1;stroke-width:0.5;stroke-linecap:round;stroke-linejoin:round;stroke:rgb(45.882353%,98.431373%,29.803923%);stroke-opacity:1;stroke-miterlimit:4;" d="M 5 7.5 C 6.380709 7.5 7.5 6.380709 7.5 5 C 7.5 3.619291 6.380709 2.5 5 2.5 C 3.619291 2.5 2.5 3.619291 2.5 5 C 2.5 6.380709 3.619291 7.5 5 7.5 Z M 5 7.5 " transform="matrix(2.6,0,0,2.6,0,0)"/>
</g>
</svg>
