<svg width="79" height="79" viewBox="0 0 79 79" fill="none" xmlns="http://www.w3.org/2000/svg">
<path d="M55.6868 10.0063C60.0814 10.0063 64.3088 11.7432 67.4187 14.8597C70.532 17.9697 72.2721 22.1643 72.2721 26.5556V52.4446C72.2721 61.5876 64.8331 68.9938 55.6868 68.9938H23.3125C14.1662 68.9938 6.73047 61.5876 6.73047 52.4446V26.5556C6.73047 17.4126 14.1334 10.0063 23.3125 10.0063H55.6868ZM59.3932 27.0472C58.705 27.0111 58.0496 27.2438 57.5547 27.7026L42.7784 39.5001C40.8777 41.0764 38.1544 41.0764 36.2242 39.5001L21.4773 27.7026C20.4582 26.9489 19.049 27.0472 18.2003 27.932C17.3154 28.8168 17.2171 30.2259 17.9676 31.2091L18.3969 31.6351L33.3076 43.2687C35.1428 44.7106 37.3679 45.4972 39.6979 45.4972C42.0214 45.4972 44.2858 44.7106 46.1177 43.2687L60.9006 31.4385L61.1628 31.1763C61.946 30.2259 61.946 28.8496 61.1268 27.8992C60.6712 27.4109 60.0453 27.1127 59.3932 27.0472Z" fill="#75FB4C"/>
</svg>
