<svg width="73" height="73" viewBox="0 0 73 73" fill="none" xmlns="http://www.w3.org/2000/svg">
<path d="M69.4823 9.68767C66.6294 11.7 63.4707 13.2392 60.1277 14.2458C58.3335 12.1828 55.949 10.7205 53.2966 10.0569C50.6443 9.39321 47.8521 9.56015 45.2977 10.5351C42.7433 11.5101 40.55 13.246 39.0143 15.5081C37.4787 17.7702 36.6748 20.4494 36.7115 23.1833V26.1625C31.476 26.2982 26.2882 25.1371 21.6101 22.7824C16.9321 20.4278 12.9089 16.9528 9.89901 12.6668C9.89901 12.6668 -2.01766 39.4793 24.7948 51.396C18.6593 55.5608 11.3503 57.6491 3.94067 57.3543C30.7532 72.2502 63.524 57.3543 63.524 23.0939C63.5212 22.2641 63.4415 21.4363 63.2857 20.6212C66.3262 17.6227 68.4719 13.8368 69.4823 9.68767Z" fill="#75FB4C" stroke="#75FB4C" stroke-width="1.7875" stroke-linecap="round" stroke-linejoin="round"/>
</svg>
